<svg xmlns="http://www.w3.org/2000/svg" xmlns:xlink="http://www.w3.org/1999/xlink" width="56cm" height="42cm" viewBox="54 48 1101 833"><g><rect width="580" height="780" x="380" y="80" style="fill:#e5e5e5"/><rect width="580" height="780" x="380" y="80" style="fill:none;fill-opacity:0;stroke-width:2;stroke-dasharray:20 8 4 8;stroke:#000"/></g><g><line x1="187.753" x2="187.753" y1="140" y2="180" style="fill:none;fill-opacity:0;stroke-width:1;stroke-dasharray:8;stroke:#000"/><line x1="187.753" x2="187.753" y1="860" y2="880" style="fill:none;fill-opacity:0;stroke-width:1;stroke-dasharray:8;stroke:#000"/><rect width="14" height="680" x="180.753" y="180" style="fill:#fff"/><rect width="14" height="680" x="180.753" y="180" style="fill:none;fill-opacity:0;stroke-width:2;stroke:#000"/></g><g><ellipse cx="80" cy="67.999" rx="6" ry="6" style="fill:#fff"/><ellipse cx="80" cy="67.999" rx="6" ry="6" style="fill:none;fill-opacity:0;stroke-width:2;stroke:#000"/><line x1="56" x2="104" y1="79.999" y2="79.999" style="fill:none;fill-opacity:0;stroke-width:2;stroke:#000"/><line x1="80" x2="80" y1="73.999" y2="103.999" style="fill:none;fill-opacity:0;stroke-width:2;stroke:#000"/><line x1="80" x2="56" y1="103.999" y2="129.999" style="fill:none;fill-opacity:0;stroke-width:2;stroke:#000"/><line x1="80" x2="104" y1="103.999" y2="129.999" style="fill:none;fill-opacity:0;stroke-width:2;stroke:#000"/></g><line x1="80" x2="80" y1="140" y2="880" style="fill:none;fill-opacity:0;stroke-width:2;stroke:#000"/><g><line x1="80" x2="177.292" y1="180" y2="180" style="fill:none;fill-opacity:0;stroke-width:2;stroke:#000"/><polygon points="184.792 180 174.792 185 177.292 180 174.792 175" style="fill:#000"/><polygon points="184.792 180 174.792 185 177.292 180 174.792 175" style="fill:none;fill-opacity:0;stroke-width:2;stroke:#000"/></g><g><rect width="100.7" height="52" x="137.403" y="72.968" style="fill:#fff"/><rect width="100.7" height="52" x="137.403" y="72.968" style="fill:none;fill-opacity:0;stroke-width:2;stroke:#000"/><text x="187.753" y="94.868" font-size="12.8" style="fill:#000;text-anchor:middle;font-family:sans-serif;font-style:normal;font-weight:400"><tspan x="187.753" y="94.868">OpenJDK10u</tspan> <tspan x="187.753" y="110.868">Build Job</tspan></text><line x1="147.403" x2="228.103" y1="97.868" y2="97.868" style="fill:none;fill-opacity:0;stroke-width:1;stroke:#000"/><line x1="159.753" x2="215.753" y1="113.868" y2="113.868" style="fill:none;fill-opacity:0;stroke-width:1;stroke:#000"/></g><text x="100" y="160" font-size="12.8" style="fill:#000;text-anchor:start;font-family:sans-serif;font-style:normal;font-weight:400"><tspan x="100" y="160">Start Build</tspan></text><g><rect width="177.15" height="52" x="405.854" y="214.46" style="fill:#fff"/><rect width="177.15" height="52" x="405.854" y="214.46" style="fill:none;fill-opacity:0;stroke-width:2;stroke:#000"/><text x="494.429" y="236.36" font-size="12.8" style="fill:#000;text-anchor:middle;font-family:sans-serif;font-style:normal;font-weight:400"><tspan x="494.429" y="236.36">jdk10u-mac-x64-hotspot</tspan> <tspan x="494.429" y="252.36">Build Job</tspan></text><line x1="415.854" x2="573.004" y1="239.36" y2="239.36" style="fill:none;fill-opacity:0;stroke-width:1;stroke:#000"/><line x1="466.429" x2="522.429" y1="255.36" y2="255.36" style="fill:none;fill-opacity:0;stroke-width:1;stroke:#000"/></g><g><line x1="388.854" x2="194.753" y1="240.423" y2="240" style="fill:none;fill-opacity:0;stroke-width:2;stroke:#000"/><polygon points="388.843 245.423 404.854 240.458 388.865 235.423" style="fill:#000"/><polygon points="388.843 245.423 404.854 240.458 388.865 235.423" style="fill:none;fill-opacity:0;stroke-width:2;stroke:#000"/></g><text x="207.028" y="232.228" font-size="12.8" style="fill:#000;text-anchor:start;font-family:sans-serif;font-style:normal;font-weight:400"><tspan x="207.028" y="232.228">Generate Job</tspan></text><g><line x1="492.868" x2="492.868" y1="280.172" y2="300.172" style="fill:none;fill-opacity:0;stroke-width:1;stroke-dasharray:8;stroke:#000"/><line x1="492.868" x2="492.868" y1="700.172" y2="829.66" style="fill:none;fill-opacity:0;stroke-width:1;stroke-dasharray:8;stroke:#000"/><rect width="14" height="400" x="485.868" y="300.172" style="fill:#fff"/><rect width="14" height="400" x="485.868" y="300.172" style="fill:none;fill-opacity:0;stroke-width:2;stroke:#000"/></g><g><line x1="468.868" x2="194.753" y1="320.162" y2="320" style="fill:none;fill-opacity:0;stroke-width:2;stroke:#000"/><polygon points="468.865 325.162 484.868 320.171 468.871 315.162" style="fill:#000"/><polygon points="468.865 325.162 484.868 320.171 468.871 315.162" style="fill:none;fill-opacity:0;stroke-width:2;stroke:#000"/></g><text x="194.753" y="280" font-size="12.8" style="fill:#000;text-anchor:start;font-family:sans-serif;font-style:normal;font-weight:400"><tspan x="194.753" y="280">Execute Build Pipeline</tspan></text><g><rect width="52.15" height="36" x="602.29" y="222.46" style="fill:#fff"/><rect width="52.15" height="36" x="602.29" y="222.46" style="fill:none;fill-opacity:0;stroke-width:2;stroke:#000"/><text x="628.365" y="244.36" font-size="12.8" style="fill:#000;text-anchor:middle;font-family:sans-serif;font-style:normal;font-weight:400"><tspan x="628.365" y="244.36">Build</tspan></text><line x1="612.29" x2="644.44" y1="247.36" y2="247.36" style="fill:none;fill-opacity:0;stroke-width:1;stroke:#000"/></g><g><line x1="628.366" x2="628.366" y1="260.388" y2="340.388" style="fill:none;fill-opacity:0;stroke-width:1;stroke-dasharray:8;stroke:#000"/><line x1="628.366" x2="628.366" y1="420.388" y2="820.936" style="fill:none;fill-opacity:0;stroke-width:1;stroke-dasharray:8;stroke:#000"/><rect width="14" height="80" x="621.366" y="340.388" style="fill:#fff"/><rect width="14" height="80" x="621.366" y="340.388" style="fill:none;fill-opacity:0;stroke-width:2;stroke:#000"/></g><g><line x1="604.364" x2="499.868" y1="340.358" y2="340.172" style="fill:none;fill-opacity:0;stroke-width:2;stroke:#000"/><polygon points="604.355 345.358 620.364 340.386 604.373 335.358" style="fill:#000"/><polygon points="604.355 345.358 620.364 340.386 604.373 335.358" style="fill:none;fill-opacity:0;stroke-width:2;stroke:#000"/></g><g><line x1="516.868" x2="621.364" y1="420.202" y2="420.388" style="fill:none;fill-opacity:0;stroke-width:2;stroke:#000"/><polygon points="516.877 415.202 500.868 420.174 516.859 425.202" style="fill:#000"/><polygon points="516.877 415.202 500.868 420.174 516.859 425.202" style="fill:none;fill-opacity:0;stroke-width:2;stroke:#000"/></g><g><rect width="95.65" height="36" x="673.726" y="222.46" style="fill:#fff"/><rect width="95.65" height="36" x="673.726" y="222.46" style="fill:none;fill-opacity:0;stroke-width:2;stroke:#000"/><text x="721.551" y="244.36" font-size="12.8" style="fill:#000;text-anchor:middle;font-family:sans-serif;font-style:normal;font-weight:400"><tspan x="721.551" y="244.36">openjdktest</tspan></text><line x1="683.726" x2="759.376" y1="247.36" y2="247.36" style="fill:none;fill-opacity:0;stroke-width:1;stroke:#000"/></g><g><line x1="721.552" x2="721.552" y1="260.388" y2="460.388" style="fill:none;fill-opacity:0;stroke-width:1;stroke-dasharray:8;stroke:#000"/><line x1="721.552" x2="721.552" y1="540.388" y2="820.936" style="fill:none;fill-opacity:0;stroke-width:1;stroke-dasharray:8;stroke:#000"/><rect width="14" height="80" x="714.552" y="460.388" style="fill:#fff"/><rect width="14" height="80" x="714.552" y="460.388" style="fill:none;fill-opacity:0;stroke-width:2;stroke:#000"/></g><g><line x1="697.552" x2="499.868" y1="460.371" y2="460.172" style="fill:none;fill-opacity:0;stroke-width:2;stroke:#000"/><polygon points="697.547 465.371 713.552 460.387 697.557 455.371" style="fill:#000"/><polygon points="697.547 465.371 713.552 460.387 697.557 455.371" style="fill:none;fill-opacity:0;stroke-width:2;stroke:#000"/></g><g><line x1="516.868" x2="714.552" y1="540.189" y2="540.388" style="fill:none;fill-opacity:0;stroke-width:2;stroke:#000"/><polygon points="516.873 535.189 500.868 540.173 516.863 545.189" style="fill:#000"/><polygon points="516.873 535.189 500.868 540.173 516.863 545.189" style="fill:none;fill-opacity:0;stroke-width:2;stroke:#000"/></g><g><rect width="90.8" height="36" x="788.662" y="222.46" style="fill:#fff"/><rect width="90.8" height="36" x="788.662" y="222.46" style="fill:none;fill-opacity:0;stroke-width:2;stroke:#000"/><text x="834.062" y="244.36" font-size="12.8" style="fill:#000;text-anchor:middle;font-family:sans-serif;font-style:normal;font-weight:400"><tspan x="834.062" y="244.36">systemtest</tspan></text><line x1="798.662" x2="869.462" y1="247.36" y2="247.36" style="fill:none;fill-opacity:0;stroke-width:1;stroke:#000"/></g><g><line x1="834.062" x2="834.062" y1="260.388" y2="440.388" style="fill:none;fill-opacity:0;stroke-width:1;stroke-dasharray:8;stroke:#000"/><line x1="834.062" x2="834.062" y1="560.388" y2="829.66" style="fill:none;fill-opacity:0;stroke-width:1;stroke-dasharray:8;stroke:#000"/><rect width="14" height="120" x="827.062" y="440.388" style="fill:#fff"/><rect width="14" height="120" x="827.062" y="440.388" style="fill:none;fill-opacity:0;stroke-width:2;stroke:#000"/></g><g><line x1="810.062" x2="499.868" y1="440.377" y2="440.172" style="fill:none;fill-opacity:0;stroke-width:2;stroke:#000"/><polygon points="810.059 445.377 826.062 440.387 810.065 435.377" style="fill:#000"/><polygon points="810.059 445.377 826.062 440.387 810.065 435.377" style="fill:none;fill-opacity:0;stroke-width:2;stroke:#000"/></g><g><line x1="516.868" x2="827.062" y1="560.183" y2="560.388" style="fill:none;fill-opacity:0;stroke-width:2;stroke:#000"/><polygon points="516.871 555.183 500.868 560.173 516.865 565.183" style="fill:#000"/><polygon points="516.871 555.183 500.868 560.173 516.865 565.183" style="fill:none;fill-opacity:0;stroke-width:2;stroke:#000"/></g><g><rect width="46.45" height="36" x="898.748" y="222.46" style="fill:#fff"/><rect width="46.45" height="36" x="898.748" y="222.46" style="fill:none;fill-opacity:0;stroke-width:2;stroke:#000"/><text x="921.973" y="244.36" font-size="12.8" style="fill:#000;text-anchor:middle;font-family:sans-serif;font-style:normal;font-weight:400"><tspan x="921.973" y="244.36">sign</tspan></text><line x1="908.748" x2="935.198" y1="247.36" y2="247.36" style="fill:none;fill-opacity:0;stroke-width:1;stroke:#000"/></g><g><line x1="921.972" x2="921.972" y1="260.388" y2="580.388" style="fill:none;fill-opacity:0;stroke-width:1;stroke-dasharray:8;stroke:#000"/><line x1="921.972" x2="921.972" y1="660.388" y2="827.48" style="fill:none;fill-opacity:0;stroke-width:1;stroke-dasharray:8;stroke:#000"/><rect width="14" height="80" x="914.972" y="580.388" style="fill:#fff"/><rect width="14" height="80" x="914.972" y="580.388" style="fill:none;fill-opacity:0;stroke-width:2;stroke:#000"/></g><g><line x1="897.972" x2="499.868" y1="580.379" y2="580.172" style="fill:none;fill-opacity:0;stroke-width:2;stroke:#000"/><polygon points="897.969 585.379 913.972 580.387 897.975 575.379" style="fill:#000"/><polygon points="897.969 585.379 913.972 580.387 897.975 575.379" style="fill:none;fill-opacity:0;stroke-width:2;stroke:#000"/></g><g><line x1="516.868" x2="914.972" y1="660.181" y2="660.388" style="fill:none;fill-opacity:0;stroke-width:2;stroke:#000"/><polygon points="516.871 655.181 500.868 660.173 516.865 665.181" style="fill:#000"/><polygon points="516.871 655.181 500.868 660.173 516.865 665.181" style="fill:none;fill-opacity:0;stroke-width:2;stroke:#000"/></g><g><line x1="211.753" x2="485.868" y1="700.01" y2="700.172" style="fill:none;fill-opacity:0;stroke-width:2;stroke:#000"/><polygon points="211.756 695.01 195.753 700.001 211.75 705.01" style="fill:#000"/><polygon points="211.756 695.01 195.753 700.001 211.75 705.01" style="fill:none;fill-opacity:0;stroke-width:2;stroke:#000"/></g><g><rect width="77.95" height="52" x="260" y="74.264" style="fill:#fff"/><rect width="77.95" height="52" x="260" y="74.264" style="fill:none;fill-opacity:0;stroke-width:2;stroke:#000"/><text x="298.975" y="96.164" font-size="12.8" style="fill:#000;text-anchor:middle;font-family:sans-serif;font-style:normal;font-weight:400"><tspan x="298.975" y="96.164">Publish </tspan> <tspan x="298.975" y="112.164">to github</tspan></text><line x1="274.15" x2="323.8" y1="99.164" y2="99.164" style="fill:none;fill-opacity:0;stroke-width:1;stroke:#000"/><line x1="270" x2="327.95" y1="115.164" y2="115.164" style="fill:none;fill-opacity:0;stroke-width:1;stroke:#000"/></g><g><line x1="298.975" x2="298.975" y1="140" y2="740" style="fill:none;fill-opacity:0;stroke-width:1;stroke-dasharray:8;stroke:#000"/><line x1="298.975" x2="298.975" y1="820" y2="880" style="fill:none;fill-opacity:0;stroke-width:1;stroke-dasharray:8;stroke:#000"/><rect width="14" height="80" x="291.975" y="740" style="fill:#fff"/><rect width="14" height="80" x="291.975" y="740" style="fill:none;fill-opacity:0;stroke-width:2;stroke:#000"/></g><g><line x1="274.975" x2="194.753" y1="740" y2="740" style="fill:none;fill-opacity:0;stroke-width:2;stroke:#000"/><polygon points="274.975 745 290.975 740 274.975 735" style="fill:#000"/><polygon points="274.975 745 290.975 740 274.975 735" style="fill:none;fill-opacity:0;stroke-width:2;stroke:#000"/></g><g><line x1="211.753" x2="291.975" y1="820" y2="820" style="fill:none;fill-opacity:0;stroke-width:2;stroke:#000"/><polygon points="211.753 815 195.753 820 211.753 825" style="fill:#000"/><polygon points="211.753 815 195.753 820 211.753 825" style="fill:none;fill-opacity:0;stroke-width:2;stroke:#000"/></g><g><line x1="97" x2="180.753" y1="860" y2="860" style="fill:none;fill-opacity:0;stroke-width:2;stroke:#000"/><polygon points="97 855 81 860 97 865" style="fill:#000"/><polygon points="97 855 81 860 97 865" style="fill:none;fill-opacity:0;stroke-width:2;stroke:#000"/></g><text x="670" y="140" font-size="16.933" style="fill:#000;text-anchor:middle;font-family:sans-serif;font-style:normal;font-weight:400"><tspan x="670" y="140">jdk10-mac-x64-hotspot</tspan> <tspan x="670" y="161.167">Pipeline Job</tspan></text><text x="1080" y="120" font-size="16.933" style="fill:#000;text-anchor:middle;font-family:sans-serif;font-style:normal;font-weight:400"><tspan x="1080" y="120">linux-x64-hotspot</tspan> <tspan x="1080" y="141.167">Pipeline Job</tspan></text><g><line x1="1080" x2="1080" y1="160" y2="200" style="fill:none;fill-opacity:0;stroke-width:1;stroke-dasharray:8;stroke:#000"/><line x1="1080" x2="1080" y1="720" y2="840" style="fill:none;fill-opacity:0;stroke-width:1;stroke-dasharray:8;stroke:#000"/><rect width="14" height="520" x="1073" y="200" style="fill:#fff"/><rect width="14" height="520" x="1073" y="200" style="fill:none;fill-opacity:0;stroke-width:2;stroke:#000"/></g><g><line x1="1056" x2="194.753" y1="200" y2="200" style="fill:none;fill-opacity:0;stroke-width:2;stroke:#000"/><polygon points="1056 205 1072 200 1056 195" style="fill:#000"/><polygon points="1056 205 1072 200 1056 195" style="fill:none;fill-opacity:0;stroke-width:2;stroke:#000"/></g><g><line x1="211.753" x2="1073" y1="720" y2="720" style="fill:none;fill-opacity:0;stroke-width:2;stroke:#000"/><polygon points="211.753 715 195.753 720 211.753 725" style="fill:#000"/><polygon points="211.753 715 195.753 720 211.753 725" style="fill:none;fill-opacity:0;stroke-width:2;stroke:#000"/></g><text x="200" y="193.832" font-size="12.8" style="fill:#000;text-anchor:start;font-family:sans-serif;font-style:normal;font-weight:400"><tspan x="200" y="193.832">Generate and Execute</tspan></text></svg>